<?xml version="1.0" encoding="iso-8859-1"?>
<!-- Uploaded to: SVG Repo, www.svgrepo.com, Generator: SVG Repo Mixer Tools -->
<svg height="800px" width="800px" version="1.1" id="Layer_1" xmlns="http://www.w3.org/2000/svg" xmlns:xlink="http://www.w3.org/1999/xlink" 
	 viewBox="0 0 512 512" xml:space="preserve">
<path style="fill:#E8E8E8;" d="M317.872,198.106H35.258C15.786,198.106,0,213.892,0,233.364v128.049
	c0,19.473,15.786,35.258,35.258,35.258h282.614c19.473,0,35.258-15.786,35.258-35.258V233.364
	C353.13,213.892,337.345,198.106,317.872,198.106z"/>
<path style="fill:#FF6361;" d="M231.449,286.13l-86.261-49.803c-8.667-5.004-19.502,1.251-19.502,11.259v99.606
	c0,10.009,10.834,16.263,19.502,11.259l86.261-49.803C240.116,303.644,240.116,291.134,231.449,286.13z"/>
<path style="fill:#333E48;" d="M276.243,198.106h-38.974v-32.07c0-6.471-5.264-11.733-11.733-11.733h-97.94
	c-6.47,0-11.733,5.264-11.733,11.733v32.07H76.888v-32.07c0-27.96,22.748-50.708,50.708-50.708h97.94
	c27.96,0,50.708,22.748,50.708,50.708V198.106z"/>
<path style="opacity:0.2;enable-background:new    ;" d="M88.023,182.139v-25.382c0-13.022,4.913-24.893,12.981-33.873
	c-14.459,8.943-24.116,24.939-24.116,43.152v32.07h38.974v-9.279H94.711C91.017,188.827,88.023,185.833,88.023,182.139z
	 M255.091,188.827c-3.694,0-6.688-2.994-6.688-6.688v-25.382c0-6.48-5.254-11.733-11.733-11.733H127.704
	c-6.481,0-11.733,5.254-11.733,11.733v7.76c0.748-5.754,5.669-10.215,11.623-10.215h97.94c6.471,0,11.733,5.264,11.733,11.733v32.07
	h38.974v-9.279L255.091,188.827L255.091,188.827z"/>
<path style="fill:#586069;" d="M499.017,207.459L353.13,250.754v93.271l145.887,43.295c6.479,1.923,12.983-2.932,12.983-9.69
	v-160.48C512,210.391,505.496,205.537,499.017,207.459z"/>
<path style="fill:#333E48;" d="M499.017,207.459l-30.61,9.084v161.691l30.61,9.084c6.479,1.923,12.983-2.932,12.983-9.69v-160.48
	C512,210.391,505.496,205.537,499.017,207.459z"/>
<path style="opacity:0.1;enable-background:new    ;" d="M377.594,331.304c-3.943-1.17-6.647-4.794-6.647-8.906v-76.932
	l-17.817,5.287v93.271l145.887,43.295c6.479,1.923,12.983-2.932,12.983-9.69v-6.437L377.594,331.304z"/>
<path style="fill:#77E0C1;" d="M312.881,247.649h-34.52c-4.613,0-8.352-3.738-8.352-8.352s3.738-8.352,8.352-8.352h34.52
	c4.613,0,8.352,3.738,8.352,8.352C321.233,243.91,317.495,247.649,312.881,247.649z"/>
<path style="fill:#FFB547;" d="M312.881,275.488h-34.52c-4.613,0-8.352-3.738-8.352-8.352s3.738-8.352,8.352-8.352h34.52
	c4.613,0,8.352,3.738,8.352,8.352C321.233,271.748,317.495,275.488,312.881,275.488z"/>
<path style="fill:#586069;" d="M26.86,251.383H0v92.014h26.86c11.462,0,20.754-9.291,20.754-20.754v-50.505
	C47.614,260.674,38.322,251.383,26.86,251.383z"/>
<path style="opacity:0.1;enable-background:new    ;" d="M336.802,373.029H54.189c-19.473,0-35.258-15.786-35.258-35.258V209.72
	c0-2.784,0.333-5.489,0.943-8.087C8.11,207.347,0,219.408,0,233.364v128.049c0,19.473,15.786,35.258,35.258,35.258h282.614
	c16.689,0,30.659-11.599,34.315-27.172C347.538,371.759,342.319,373.029,336.802,373.029z"/>
</svg>